<svg width="21" height="21" viewBox="0 0 21 21" fill="none" xmlns="http://www.w3.org/2000/svg">
<path d="M7.88989 12.1667C9.04073 12.1667 10.0824 11.7 10.8366 10.9458C11.5899 10.1925 12.0566 9.15084 12.0566 8.00001C12.0566 6.84918 11.5899 5.80751 10.8366 5.05418C10.0824 4.30001 9.04073 3.83334 7.88989 3.83334C6.73906 3.83334 5.69739 4.30001 4.94323 5.05418C4.18989 5.80751 3.72323 6.84918 3.72323 8.00001C3.72323 9.15084 4.18989 10.1925 4.94323 10.9458C5.69739 11.7 6.73906 12.1667 7.88989 12.1667ZM7.88989 18C10.8216 18 12.8899 17.1667 12.8899 16.3333C12.8899 14.6667 10.9282 13 7.88989 13C4.76489 13 2.88989 14.6667 2.88989 16.3333C2.88989 17.1667 4.76489 18 7.88989 18ZM17.8899 10.5H16.2232V8.83334C16.2232 8.37251 15.8507 8.00001 15.3899 8.00001C14.9291 8.00001 14.5566 8.37251 14.5566 8.83334V10.5H12.8899C12.4291 10.5 12.0566 10.8725 12.0566 11.3333C12.0566 11.7942 12.4291 12.1667 12.8899 12.1667H14.5566V13.8333C14.5566 14.2942 14.9291 14.6667 15.3899 14.6667C15.8507 14.6667 16.2232 14.2942 16.2232 13.8333V12.1667H17.8899C18.3507 12.1667 18.7232 11.7942 18.7232 11.3333C18.7232 10.8725 18.3507 10.5 17.8899 10.5Z" fill="#7662FC"/>
</svg>
