<svg width="21" height="21" viewBox="0 0 21 21" fill="none" xmlns="http://www.w3.org/2000/svg">
<path d="M14.38 6.75C14.38 7.74456 13.9849 8.69839 13.2817 9.40165C12.5784 10.1049 11.6246 10.5 10.63 10.5C9.63544 10.5 8.68162 10.1049 7.97835 9.40165C7.27509 8.69839 6.88 7.74456 6.88 6.75C6.88 5.75544 7.27509 4.80161 7.97835 4.09835C8.68162 3.39509 9.63544 3 10.63 3C11.6246 3 12.5784 3.39509 13.2817 4.09835C13.9849 4.80161 14.38 5.75544 14.38 6.75ZM3.13 16.75C3.13 18 4.38 18 4.38 18H10.95C10.7377 17.3977 10.6295 16.7636 10.63 16.125C10.63 15.3212 10.8023 14.5267 11.1352 13.7951C11.4681 13.0635 11.954 12.4118 12.56 11.8838C11.9767 11.7963 11.3333 11.7517 10.63 11.75C4.38 11.75 3.13 15.5 3.13 16.75Z" fill="#C33D7B"/>
<path d="M16.255 20.5C17.4153 20.5 18.5281 20.0391 19.3486 19.2186C20.1691 18.3981 20.63 17.2853 20.63 16.125C20.63 14.9647 20.1691 13.8519 19.3486 13.0314C18.5281 12.2109 17.4153 11.75 16.255 11.75C15.0947 11.75 13.9819 12.2109 13.1614 13.0314C12.3409 13.8519 11.88 14.9647 11.88 16.125C11.88 17.2853 12.3409 18.3981 13.1614 19.2186C13.9819 20.0391 15.0947 20.5 16.255 20.5ZM15.4475 14.4325L16.255 15.2413L17.0625 14.4325C17.1799 14.3151 17.339 14.2492 17.505 14.2492C17.671 14.2492 17.8301 14.3151 17.9475 14.4325C18.0649 14.5499 18.1308 14.709 18.1308 14.875C18.1308 15.041 18.0649 15.2001 17.9475 15.3175L17.1388 16.125L17.9475 16.9325C18.0649 17.0499 18.1308 17.209 18.1308 17.375C18.1308 17.541 18.0649 17.7001 17.9475 17.8175C17.8301 17.9349 17.671 18.0008 17.505 18.0008C17.339 18.0008 17.1799 17.9349 17.0625 17.8175L16.255 17.0087L15.4475 17.8175C15.3301 17.9349 15.171 18.0008 15.005 18.0008C14.839 18.0008 14.6799 17.9349 14.5625 17.8175C14.4451 17.7001 14.3792 17.541 14.3792 17.375C14.3792 17.209 14.4451 17.0499 14.5625 16.9325L15.3713 16.125L14.5625 15.3175C14.4451 15.2001 14.3792 15.041 14.3792 14.875C14.3792 14.709 14.4451 14.5499 14.5625 14.4325C14.6799 14.3151 14.839 14.2492 15.005 14.2492C15.171 14.2492 15.3301 14.3151 15.4475 14.4325Z" fill="#C33D7B"/>
</svg>
