<svg width="16" height="16" viewBox="0 0 16 16" fill="none" xmlns="http://www.w3.org/2000/svg">
<path d="M8.00005 0C8.55317 0 9.00005 0.446875 9.00005 1V2.11562C9.05005 2.12187 9.09692 2.12812 9.14692 2.1375C9.15942 2.14062 9.1688 2.14062 9.1813 2.14375L10.6813 2.41875C11.225 2.51875 11.5844 3.04063 11.4844 3.58125C11.3844 4.12187 10.8625 4.48438 10.3219 4.38438L8.83755 4.1125C7.85942 3.96875 6.99692 4.06563 6.39067 4.30625C5.78442 4.54688 5.54067 4.87812 5.48442 5.18437C5.42192 5.51875 5.4688 5.70625 5.52192 5.82188C5.57817 5.94375 5.69379 6.08125 5.92192 6.23438C6.43129 6.56875 7.21255 6.7875 8.22505 7.05625L8.31567 7.08125C9.20942 7.31875 10.3032 7.60625 11.1157 8.1375C11.5594 8.42812 11.9782 8.82187 12.2375 9.37187C12.5032 9.93125 12.5594 10.5563 12.4375 11.2219C12.2219 12.4094 11.4032 13.2031 10.3875 13.6187C9.95942 13.7937 9.4938 13.9062 9.00005 13.9625V15.0063C9.00005 15.5594 8.55317 16.0063 8.00005 16.0063C7.44692 16.0063 7.00005 15.5594 7.00005 15.0063V13.9156C6.98755 13.9125 6.97192 13.9125 6.95942 13.9094H6.95317C6.19067 13.7906 4.93755 13.4625 4.0938 13.0875C3.59067 12.8625 3.36255 12.2719 3.58755 11.7688C3.81255 11.2656 4.40317 11.0375 4.9063 11.2625C5.55942 11.5531 6.63442 11.8406 7.25629 11.9375C8.25317 12.0844 9.07505 12 9.6313 11.7719C10.1594 11.5563 10.4 11.2437 10.4688 10.8687C10.5282 10.5375 10.4813 10.3469 10.4282 10.2312C10.3688 10.1062 10.2532 9.96875 10.0219 9.81563C9.50942 9.48125 8.72505 9.2625 7.70942 8.99375L7.62192 8.97188C6.7313 8.72813 5.63755 8.4375 4.82505 7.90625C4.3813 7.61562 3.96567 7.21875 3.7063 6.66875C3.4438 6.10938 3.39067 5.48438 3.51567 4.81875C3.74067 3.625 4.63442 2.85 5.65005 2.44688C6.06567 2.28125 6.52192 2.16875 7.00005 2.10313V1C7.00005 0.446875 7.44692 0 8.00005 0Z" fill="#8E8E8E"/>
</svg>
