<svg width="21" height="21" viewBox="0 0 21 21" fill="none" xmlns="http://www.w3.org/2000/svg">
<path d="M15.67 9.5C13.1825 9.5 11.17 11.5125 11.17 14C11.17 16.4875 13.1825 18.5 15.67 18.5C18.1575 18.5 20.17 16.4875 20.17 14C20.17 11.5125 18.1575 9.5 15.67 9.5ZM17.67 14.1969C17.67 14.3625 17.5325 14.5 17.3669 14.5H15.4732C15.3075 14.5 15.17 14.3625 15.17 14.1969V11.8031C15.17 11.6375 15.3075 11.5 15.4732 11.5H15.8669C16.0325 11.5 16.17 11.6375 16.17 11.8031V13.5H17.3669C17.5325 13.5 17.67 13.6375 17.67 13.8031V14.1969ZM10.17 14C10.17 13.1313 10.3794 12.3094 10.7388 11.5781C10.4888 11.5312 10.2325 11.5 9.97004 11.5H9.44817C8.75442 11.8188 7.98254 12 7.17004 12C6.35754 12 5.58879 11.8188 4.89192 11.5H4.37004C2.05129 11.5 0.170044 13.3813 0.170044 15.7V17C0.170044 17.8281 0.841919 18.5 1.67004 18.5H12.5169C11.1013 17.5031 10.17 15.8594 10.17 14ZM7.17004 10.5C9.37942 10.5 11.17 8.70937 11.17 6.5C11.17 4.29063 9.37942 2.5 7.17004 2.5C4.96067 2.5 3.17004 4.29063 3.17004 6.5C3.17004 8.70937 4.96067 10.5 7.17004 10.5Z" fill="#7662FC"/>
</svg>
