<svg width="21" height="21" viewBox="0 0 21 21" fill="none" xmlns="http://www.w3.org/2000/svg">
<path fill-rule="evenodd" clip-rule="evenodd" d="M18.28 6.125V14.25H17.03V6.125H14.53C14.0327 6.125 13.5558 5.92746 13.2042 5.57583C12.8526 5.22419 12.655 4.74728 12.655 4.25V1.75H5.78003C5.44851 1.75 5.13057 1.8817 4.89615 2.11612C4.66173 2.35054 4.53003 2.66848 4.53003 3V14.25H3.28003V3C3.28003 2.33696 3.54342 1.70107 4.01226 1.23223C4.4811 0.763392 5.11699 0.5 5.78003 0.5L12.655 0.5L18.28 6.125ZM10.605 19.0513C10.6122 19.2482 10.6605 19.4415 10.7468 19.6187C10.8331 19.7958 10.9556 19.953 11.1063 20.08C11.2688 20.215 11.4684 20.32 11.705 20.395C11.9417 20.4708 12.2188 20.5088 12.5363 20.5088C12.9588 20.5088 13.3163 20.4429 13.6088 20.3113C13.9046 20.1796 14.1296 19.9963 14.2838 19.7612C14.4414 19.5172 14.5228 19.2317 14.5175 18.9412C14.5175 18.6613 14.4613 18.4279 14.3488 18.2412C14.2344 18.0539 14.0727 17.9 13.88 17.795C13.6592 17.6723 13.4211 17.5838 13.1738 17.5325L12.3975 17.3525C12.2145 17.3178 12.0415 17.2426 11.8913 17.1325C11.8345 17.0884 11.7887 17.0316 11.7577 16.9668C11.7267 16.9019 11.7112 16.8307 11.7125 16.7588C11.7125 16.5637 11.7892 16.4038 11.9425 16.2788C12.0992 16.1521 12.3129 16.0887 12.5838 16.0887C12.7621 16.0887 12.9163 16.1171 13.0463 16.1737C13.1661 16.2216 13.2716 16.2995 13.3525 16.4C13.4295 16.4928 13.4811 16.6039 13.5025 16.7225H14.44C14.4243 16.4682 14.3382 16.2232 14.1913 16.015C14.0338 15.7902 13.8176 15.6129 13.5663 15.5025C13.2595 15.3673 12.9264 15.3024 12.5913 15.3125C12.2246 15.3125 11.9009 15.375 11.62 15.5C11.34 15.6242 11.1204 15.7996 10.9613 16.0262C10.8029 16.2537 10.7238 16.52 10.7238 16.825C10.7238 17.0767 10.775 17.295 10.8775 17.48C10.98 17.665 11.1263 17.8179 11.3163 17.9388C11.5071 18.0579 11.7321 18.1467 11.9913 18.205L12.7638 18.385C13.0221 18.4458 13.2146 18.5263 13.3413 18.6263C13.4036 18.6738 13.4535 18.7357 13.4868 18.8066C13.52 18.8775 13.5357 18.9555 13.5325 19.0337C13.5353 19.1626 13.4982 19.2893 13.4263 19.3962C13.3457 19.5059 13.235 19.5898 13.1075 19.6375C12.9675 19.6958 12.7954 19.725 12.5913 19.725C12.4446 19.725 12.3113 19.7083 12.1913 19.675C12.08 19.6454 11.9747 19.5967 11.88 19.5312C11.7969 19.4773 11.7257 19.4068 11.6709 19.3243C11.6161 19.2417 11.5788 19.1488 11.5613 19.0513H10.605ZM5.94753 15.415H7.06378L5.47128 17.9237L7.03878 20.4137H5.90378L4.84128 18.645H4.79753L3.73128 20.4137H2.65503L4.20503 17.8937L2.67003 15.415H3.83378L4.87378 17.2125H4.91878L5.94753 15.415ZM8.35128 19.5713H10.4725V20.4137H7.36253V15.415H8.35128V19.5713ZM17.8963 15.415H19.0125L17.42 17.9237L18.9875 20.4137H17.8525L16.79 18.645H16.7463L15.68 20.4137H14.6038L16.1538 17.8937L14.6188 15.415H15.7825L16.8225 17.2125H16.8675L17.8963 15.415Z" fill="#C33D7B"/>
</svg>
