<svg width="16" height="16" viewBox="0 0 16 16" fill="none" xmlns="http://www.w3.org/2000/svg">
<path d="M9.33668 1.99976V13.9998H2.00334C1.63515 13.9998 1.33667 13.7012 1.33667 13.3331V9.66645C2.25714 9.66645 3.00334 8.92025 3.00334 7.99978C3.00334 7.07932 2.25714 6.33309 1.33667 6.33309V2.66642C1.33667 2.29824 1.63515 1.99976 2.00334 1.99976H9.33668ZM10.67 1.99976H14.0033C14.3715 1.99976 14.67 2.29824 14.67 2.66642V6.33309C13.7495 6.33309 13.0033 7.07932 13.0033 7.99978C13.0033 8.92025 13.7495 9.66645 14.67 9.66645V13.3331C14.67 13.7012 14.3715 13.9998 14.0033 13.9998H10.67V1.99976Z" fill="#47C97E"/>
</svg>
