<svg width="13" height="13" viewBox="0 0 13 13" fill="none" xmlns="http://www.w3.org/2000/svg">
<path d="M9.62368 9.21546L12.147 11.7388L11.3138 12.572L8.79044 10.0487C7.88315 10.7746 6.73251 11.2088 5.48107 11.2088C2.55397 11.2088 0.178345 8.83319 0.178345 5.90609C0.178345 2.97898 2.55397 0.603363 5.48107 0.603363C8.40817 0.603363 10.7838 2.97898 10.7838 5.90609C10.7838 7.15753 10.3496 8.30816 9.62368 9.21546ZM8.44158 8.77828C9.16204 8.03578 9.60541 7.02296 9.60541 5.90609C9.60541 3.62739 7.75977 1.78175 5.48107 1.78175C3.20237 1.78175 1.35673 3.62739 1.35673 5.90609C1.35673 8.18479 3.20237 10.0304 5.48107 10.0304C6.59794 10.0304 7.61076 9.58706 8.35326 8.8666L8.44158 8.77828Z" fill="#5F6063"/>
</svg>
