<svg width="16" height="16" viewBox="0 0 16 16" fill="none" xmlns="http://www.w3.org/2000/svg">
<path d="M9.33668 1.99979V13.9998H2.00334C1.63515 13.9998 1.33667 13.7013 1.33667 13.3331V9.66648C2.25714 9.66648 3.00334 8.92028 3.00334 7.99981C3.00334 7.07935 2.25714 6.33312 1.33667 6.33312V2.66645C1.33667 2.29827 1.63515 1.99979 2.00334 1.99979H9.33668ZM10.67 1.99979H14.0033C14.3715 1.99979 14.67 2.29827 14.67 2.66645V6.33312C13.7495 6.33312 13.0033 7.07935 13.0033 7.99981C13.0033 8.92028 13.7495 9.66648 14.67 9.66648V13.3331C14.67 13.7013 14.3715 13.9998 14.0033 13.9998H10.67V1.99979Z" fill="#8E8E8E"/>
</svg>
